<svg xmlns="http://www.w3.org/2000/svg" width="1800" height="1120" viewBox="0 0 1800 1120" role="img" aria-labelledby="title desc">
  <title id="title">Harness + Vibe Coding Project Architecture</title>
  <desc id="desc">Business technology style architecture diagram for the Agent-First Living Lab, showing project OS, harness core, lab validation, evidence, and reusable outputs.</desc>
  <defs>
    <linearGradient id="bg" x1="0" y1="0" x2="1" y2="1">
      <stop offset="0" stop-color="#07111f"/>
      <stop offset="0.55" stop-color="#0b1628"/>
      <stop offset="1" stop-color="#111827"/>
    </linearGradient>
    <linearGradient id="panel" x1="0" y1="0" x2="1" y2="1">
      <stop offset="0" stop-color="#0f1f35"/>
      <stop offset="1" stop-color="#0b1728"/>
    </linearGradient>
    <filter id="glow" x="-20%" y="-20%" width="140%" height="140%">
      <feGaussianBlur stdDeviation="3.5" result="blur"/>
      <feColorMatrix in="blur" type="matrix" values="0 0 0 0 0.05 0 0 0 0 0.85 0 0 0 0 0.78 0 0 0 .55 0"/>
      <feMerge>
        <feMergeNode/>
        <feMergeNode in="SourceGraphic"/>
      </feMerge>
    </filter>
    <marker id="arrow-teal" markerWidth="12" markerHeight="12" refX="10" refY="6" orient="auto" markerUnits="strokeWidth">
      <path d="M2,2 L10,6 L2,10 Z" fill="#2dd4bf"/>
    </marker>
    <marker id="arrow-gold" markerWidth="12" markerHeight="12" refX="10" refY="6" orient="auto" markerUnits="strokeWidth">
      <path d="M2,2 L10,6 L2,10 Z" fill="#f6c453"/>
    </marker>
    <style>
      .bg { fill: url(#bg); }
      .grid { stroke: #1f3b5a; stroke-width: 1; opacity: .22; }
      .panel { fill: url(#panel); stroke: #2dd4bf; stroke-width: 1.8; rx: 18; }
      .panel-blue { fill: #0d2038; stroke: #3b82f6; stroke-width: 1.8; rx: 18; }
      .panel-gold { fill: #1f1a10; stroke: #f6c453; stroke-width: 1.8; rx: 18; }
      .card { fill: #101f33; stroke: #385675; stroke-width: 1.3; rx: 12; }
      .card-soft { fill: #13263d; stroke: #2b4968; stroke-width: 1.1; rx: 10; }
      .accent { fill: #2dd4bf; }
      .gold { fill: #f6c453; }
      .blue { fill: #60a5fa; }
      .green { fill: #4ade80; }
      .text { fill: #f8fafc; font-family: Inter, "PingFang SC", "Microsoft YaHei", Arial, sans-serif; letter-spacing: 0; }
      .muted { fill: #9fb3c8; font-family: Inter, "PingFang SC", "Microsoft YaHei", Arial, sans-serif; letter-spacing: 0; }
      .dim { fill: #6f8aa6; font-family: Inter, "PingFang SC", "Microsoft YaHei", Arial, sans-serif; letter-spacing: 0; }
      .mono { fill: #c7d2fe; font-family: "SFMono-Regular", Consolas, monospace; letter-spacing: 0; }
      .title { font-size: 54px; font-weight: 850; }
      .subtitle { font-size: 23px; font-weight: 500; }
      .h1 { font-size: 27px; font-weight: 800; }
      .h2 { font-size: 21px; font-weight: 760; }
      .body { font-size: 18px; font-weight: 560; }
      .small { font-size: 15px; font-weight: 520; }
      .tiny { font-size: 13px; font-weight: 520; }
      .line { stroke: #2dd4bf; stroke-width: 3.2; fill: none; marker-end: url(#arrow-teal); }
      .line-gold { stroke: #f6c453; stroke-width: 3.2; fill: none; marker-end: url(#arrow-gold); }
      .line-soft { stroke: #52708f; stroke-width: 2; fill: none; stroke-dasharray: 7 7; }
    </style>
  </defs>

  <rect class="bg" width="1800" height="1120"/>
  <g opacity=".55">
    <path class="grid" d="M0 80 H1800 M0 160 H1800 M0 240 H1800 M0 320 H1800 M0 400 H1800 M0 480 H1800 M0 560 H1800 M0 640 H1800 M0 720 H1800 M0 800 H1800 M0 880 H1800 M0 960 H1800 M0 1040 H1800"/>
    <path class="grid" d="M80 0 V1120 M160 0 V1120 M240 0 V1120 M320 0 V1120 M400 0 V1120 M480 0 V1120 M560 0 V1120 M640 0 V1120 M720 0 V1120 M800 0 V1120 M880 0 V1120 M960 0 V1120 M1040 0 V1120 M1120 0 V1120 M1200 0 V1120 M1280 0 V1120 M1360 0 V1120 M1440 0 V1120 M1520 0 V1120 M1600 0 V1120 M1680 0 V1120"/>
  </g>

  <text class="text title" x="900" y="76" text-anchor="middle">Harness + Vibe Coding 项目架构图</text>
  <text class="muted subtitle" x="900" y="116" text-anchor="middle">Agent-readable OS -> Harness Engineering Core -> Real Lab Validation -> Reusable Templates / Skills</text>

  <rect class="panel" x="36" y="160" width="430" height="790" rx="18" filter="url(#glow)"/>
  <text class="text h1" x="70" y="205">阶段 1：Agent-First 项目 OS</text>
  <g transform="translate(64 232)">
    <rect class="card-soft" x="0" y="0" width="370" height="48" rx="12"/>
    <text class="green body" x="18" y="31">可读</text>
    <text class="green body" x="102" y="31">可恢复</text>
    <text class="green body" x="214" y="31">可复用</text>
    <text class="green body" x="306" y="31">可分享</text>
  </g>
  <rect class="card" x="64" y="310" width="370" height="430" rx="14"/>
  <text class="mono small" x="92" y="352">my-agentic-project/</text>
  <text class="mono small" x="114" y="390">|- AGENTS.md</text>
  <text class="dim tiny" x="290" y="390">协作约定与角色分工</text>
  <text class="mono small" x="114" y="426">|- CONTEXT.md</text>
  <text class="dim tiny" x="290" y="426">项目全局上下文</text>
  <text class="mono small" x="114" y="462">|- docs/</text>
  <text class="mono small" x="140" y="498">|- evolution/</text>
  <text class="dim tiny" x="290" y="498">演进记录</text>
  <text class="mono small" x="140" y="534">|- standards/</text>
  <text class="dim tiny" x="290" y="534">项目规范</text>
  <text class="mono small" x="140" y="570">|- tools/</text>
  <text class="dim tiny" x="290" y="570">工具与技能</text>
  <text class="mono small" x="114" y="606">|- harness/</text>
  <text class="dim tiny" x="290" y="606">工程化方法</text>
  <text class="mono small" x="114" y="642">|- lab/</text>
  <text class="dim tiny" x="290" y="642">真实验证项目</text>
  <text class="mono small" x="114" y="678">|- templates/</text>
  <text class="dim tiny" x="290" y="678">复用骨架</text>
  <g transform="translate(64 778)">
    <rect class="card-soft" x="0" y="0" width="82" height="86" rx="12"/>
    <path d="M26 30 h30 v26 h-30 z M26 30 l8 -8 h22" fill="none" stroke="#2dd4bf" stroke-width="3"/>
    <text class="muted tiny" x="41" y="70" text-anchor="middle">清晰结构</text>
    <rect class="card-soft" x="96" y="0" width="82" height="86" rx="12"/>
    <circle cx="133" cy="35" r="16" fill="none" stroke="#2dd4bf" stroke-width="3"/>
    <path d="M146 48 l12 12" stroke="#2dd4bf" stroke-width="3"/>
    <text class="muted tiny" x="137" y="70" text-anchor="middle">快速定位</text>
    <rect class="card-soft" x="192" y="0" width="82" height="86" rx="12"/>
    <path d="M232 18 v24 l18 10" fill="none" stroke="#2dd4bf" stroke-width="3"/>
    <circle cx="232" cy="42" r="24" fill="none" stroke="#2dd4bf" stroke-width="3"/>
    <text class="muted tiny" x="233" y="70" text-anchor="middle">版本演进</text>
    <rect class="card-soft" x="288" y="0" width="82" height="86" rx="12"/>
    <circle cx="318" cy="30" r="10" fill="#2dd4bf"/>
    <circle cx="344" cy="30" r="10" fill="#2dd4bf"/>
    <path d="M310 56 c4 -18 40 -18 44 0" fill="none" stroke="#2dd4bf" stroke-width="3"/>
    <text class="muted tiny" x="329" y="70" text-anchor="middle">协作可扩展</text>
  </g>

  <rect class="panel-blue" x="500" y="160" width="760" height="790" rx="18"/>
  <text class="text h1" x="535" y="205">阶段 2：Harness 工程学习沉淀</text>
  <g transform="translate(535 238)">
    <rect class="card" x="0" y="0" width="260" height="66" rx="12"/>
    <text class="blue h2" x="22" y="27">Foundations</text>
    <text class="muted tiny" x="22" y="50">原则、概念、抽象边界</text>
    <rect class="card" x="0" y="92" width="260" height="66" rx="12"/>
    <text class="blue h2" x="22" y="119">Guardrails</text>
    <text class="muted tiny" x="22" y="142">约束、权限、风险控制</text>
    <rect class="card" x="0" y="184" width="260" height="66" rx="12"/>
    <text class="blue h2" x="22" y="211">Evals / Observability</text>
    <text class="muted tiny" x="22" y="234">评估体系、可观测性</text>
  </g>
  <g transform="translate(965 238)">
    <rect class="card" x="0" y="0" width="260" height="66" rx="12"/>
    <text class="blue h2" x="22" y="27">Context / Memory</text>
    <text class="muted tiny" x="22" y="50">上下文工程、记忆管理</text>
    <rect class="card" x="0" y="92" width="260" height="66" rx="12"/>
    <text class="blue h2" x="22" y="119">Specs / Workflows</text>
    <text class="muted tiny" x="22" y="142">规格定义、工作流编排</text>
    <rect class="card" x="0" y="184" width="260" height="66" rx="12"/>
    <text class="blue h2" x="22" y="211">Benchmarks / Runtimes</text>
    <text class="muted tiny" x="22" y="234">基准、运行时、成本性能</text>
  </g>
  <circle cx="880" cy="365" r="86" fill="#0b1728" stroke="#2dd4bf" stroke-width="2.4" filter="url(#glow)"/>
  <path d="M880 306 l50 30 v58 l-50 30 l-50 -30 v-58 z" fill="none" stroke="#f8fafc" stroke-width="4"/>
  <text class="text h2" x="880" y="354" text-anchor="middle">Harness</text>
  <text class="muted small" x="880" y="382" text-anchor="middle">知识图谱</text>
  <text class="gold h1" x="880" y="500" text-anchor="middle">agent = model + harness</text>
  <text class="dim tiny" x="880" y="530" text-anchor="middle">把模型能力嵌入项目上下文、规则、工具、验证与复用路径</text>

  <g transform="translate(530 585)">
    <rect class="card-soft" x="0" y="0" width="166" height="94" rx="12"/>
    <text class="text h2" x="83" y="33" text-anchor="middle">Control</text>
    <text class="muted tiny" x="83" y="60" text-anchor="middle">规则与约束</text>
    <text class="muted tiny" x="83" y="78" text-anchor="middle">规范可执行</text>
    <rect class="card-soft" x="190" y="0" width="166" height="94" rx="12"/>
    <text class="text h2" x="273" y="33" text-anchor="middle">Agency</text>
    <text class="muted tiny" x="273" y="60" text-anchor="middle">决策与行动</text>
    <text class="muted tiny" x="273" y="78" text-anchor="middle">任务自主完成</text>
    <rect class="card-soft" x="380" y="0" width="166" height="94" rx="12"/>
    <text class="text h2" x="463" y="33" text-anchor="middle">Runtime</text>
    <text class="muted tiny" x="463" y="60" text-anchor="middle">运行与编排</text>
    <text class="muted tiny" x="463" y="78" text-anchor="middle">工具链执行</text>
    <rect class="card-soft" x="570" y="0" width="166" height="94" rx="12"/>
    <text class="text h2" x="653" y="33" text-anchor="middle">Substrate</text>
    <text class="muted tiny" x="653" y="60" text-anchor="middle">底层基础设施</text>
    <text class="muted tiny" x="653" y="78" text-anchor="middle">模型/沙箱/权限</text>
  </g>

  <g transform="translate(555 738)">
    <rect class="card" x="0" y="0" width="650" height="154" rx="16"/>
    <text class="accent h2" x="28" y="36">Harness Core Loops</text>
    <rect class="card-soft" x="28" y="60" width="135" height="62" rx="10"/>
    <text class="text small" x="95" y="86" text-anchor="middle">Capability</text>
    <text class="text small" x="95" y="107" text-anchor="middle">Discovery</text>
    <rect class="card-soft" x="188" y="60" width="120" height="62" rx="10"/>
    <text class="text small" x="248" y="86" text-anchor="middle">Delivery</text>
    <text class="text small" x="248" y="107" text-anchor="middle">Loop</text>
    <rect class="card-soft" x="333" y="60" width="150" height="62" rx="10"/>
    <text class="text small" x="408" y="86" text-anchor="middle">Orchestration</text>
    <text class="text small" x="408" y="107" text-anchor="middle">Loop</text>
    <rect class="card-soft" x="508" y="60" width="115" height="62" rx="10"/>
    <text class="text small" x="566" y="86" text-anchor="middle">Learning</text>
    <text class="text small" x="566" y="107" text-anchor="middle">Loop</text>
    <path class="line-soft" d="M163 91 H188 M308 91 H333 M483 91 H508"/>
    <path class="line-gold" d="M566 122 C490 160 170 158 95 126"/>
  </g>

  <rect class="panel-gold" x="1294" y="160" width="470" height="790" rx="18"/>
  <text class="text h1" x="1328" y="205">证据沉淀 -> 复用输出</text>
  <g transform="translate(1326 242)">
    <rect class="card" x="0" y="0" width="190" height="240" rx="14"/>
    <text class="gold h2" x="24" y="34">Evidence</text>
    <text class="muted small" x="24" y="78">harness/runs</text>
    <text class="muted small" x="24" y="116">experiments/reports</text>
    <text class="muted small" x="24" y="154">evals/rubrics</text>
    <text class="muted small" x="24" y="192">decisions/ADR</text>
    <rect class="card" x="226" y="0" width="190" height="240" rx="14"/>
    <text class="gold h2" x="250" y="34">Reusable</text>
    <text class="muted small" x="250" y="78">template skeleton</text>
    <text class="muted small" x="250" y="116">docs/patterns</text>
    <text class="muted small" x="250" y="154">agents/playbooks</text>
    <text class="muted small" x="250" y="192">future skills</text>
  </g>
  <g transform="translate(1326 535)">
    <rect class="card" x="0" y="0" width="416" height="322" rx="16"/>
    <text class="accent h2" x="24" y="38">真实 Lab 验证：dinner-picker</text>
    <rect x="30" y="66" width="118" height="206" rx="18" fill="#f8fafc" stroke="#2dd4bf" stroke-width="2"/>
    <rect x="48" y="90" width="82" height="62" rx="12" fill="#dbeafe"/>
    <circle cx="89" cy="121" r="24" fill="#f59e0b"/>
    <rect x="52" y="170" width="74" height="16" rx="8" fill="#0f172a" opacity=".8"/>
    <rect x="52" y="198" width="74" height="34" rx="10" fill="#ef4444"/>
    <rect x="52" y="240" width="74" height="18" rx="9" fill="#10b981"/>
    <text class="muted small" x="176" y="86">移动端友好</text>
    <text class="dim tiny" x="176" y="112">单列布局 / 触控反馈 / 性能检查</text>
    <text class="muted small" x="176" y="154">反馈驱动改造</text>
    <text class="dim tiny" x="176" y="180">用户指出问题 -> Agent 修正标准</text>
    <text class="muted small" x="176" y="222">自动闭环</text>
    <text class="dim tiny" x="176" y="248">测试 / 构建 / Chrome MCP / 截图</text>
    <text class="muted small" x="176" y="290">证据归档</text>
    <text class="dim tiny" x="176" y="316">run record / evolution / checklist</text>
  </g>

  <path class="line" d="M466 555 H492"/>
  <path class="line" d="M1260 555 H1286"/>
  <path class="line-gold" d="M1528 242 C1450 126 942 128 905 270"/>
  <text class="dim tiny" x="900" y="1045" text-anchor="middle">核心判断：本项目不是单纯写文档，而是在真实项目中把 Agent 的错误、反馈、验证和复用路径沉淀成可迁移的 harness 工程能力。</text>
</svg>
